<svg width="305" height="78" viewBox="0 0 305 78" fill="none" xmlns="http://www.w3.org/2000/svg">
<path d="M156.773 18.2043H161.142V17.1168L160.043 16.0195H154.596L153.5 17.1168V25.8391L154.596 26.9265H160.043L161.142 25.8391V24.7516H156.773V22.5672H161.142V20.3926H156.773V18.2043Z" fill="#1C1C1A"/>
<path d="M160.406 6.26953H154.24V12.4362H160.406V6.26953Z" fill="#3BBFF0"/>
<path d="M148.413 16.0195V20.3907H145.14V16.0195H142.966L141.87 17.1168V25.8391L142.966 26.9265H145.14V22.5652H148.413V26.9265H150.597L151.684 25.8391V17.1168L150.597 16.0195H148.413Z" fill="#1C1C1A"/>
<path d="M131.337 16.0195L130.239 17.1168V18.2043H133.512V25.8371L134.608 26.9243H135.696L136.782 25.8371V18.2043H140.053V17.1168L138.965 16.0195H131.337Z" fill="#1C1C1A"/>
<path d="M130.424 30.6846V74.3215H160.959L165.317 69.9605V35.0557L160.959 30.6945H130.424V30.6846ZM143.511 39.4167H152.239V65.6015H143.511V39.4167Z" fill="#1C1C1A"/>
<path d="M169.676 30.6846V74.3215H200.211L204.57 69.9605V56.8672L200.211 52.5062L204.57 48.1449V35.0538L200.211 30.6925H169.676V30.6846ZM182.763 56.8691H191.491V65.6015H182.763V56.8691ZM182.763 48.137V39.4148H191.491V48.137H182.763Z" fill="#1C1C1A"/>
<path d="M213.298 30.6846L208.939 35.0458V69.9506L213.298 74.3116H239.471L243.83 69.9506V35.0458L239.471 30.6846H213.298ZM222.016 39.4167H230.743V65.6015H222.016V39.4167Z" fill="#1C1C1A"/>
<path d="M283.077 52.5078L291.314 44.2667L299.551 52.5078L291.314 60.7489L283.077 52.5078Z" fill="#3BBFF0"/>
<path d="M269.996 30.6846V43.776L265.637 48.137L261.278 43.776V30.6846H252.548L248.189 35.0557V48.137L252.548 52.5081L248.189 56.8691V69.9605L252.548 74.3215H261.278V61.2303L265.637 56.8691L269.996 61.2303V74.3215H278.726L283.085 69.9605V56.8691L278.726 52.5081L283.085 48.137V35.0557L278.726 30.6846H269.996Z" fill="#1C1C1A"/>
<path d="M112.986 30.6845V43.776L99.8994 30.6845H91.1815L86.8226 35.0557V69.9605L91.1815 74.3215H99.8994V48.137L112.986 61.2284V74.3196H121.714L126.073 69.9586V35.0537L121.714 30.6826L112.986 30.6845Z" fill="#1C1C1A"/>
<path d="M78.085 30.7822H51.9115L47.5525 35.1435V70.0483L51.9115 74.4093H60.6393V56.9569H69.3572V74.4192H78.0752L82.4341 70.0582V35.1534L78.085 30.7822ZM64.9982 49.838L59.425 44.2631L64.9982 38.688L70.5714 44.2631L64.9982 49.838Z" fill="#1C1C1A"/>
<path d="M12.6571 30.6846L8.29816 35.0557V52.5081L12.6571 56.8691H30.1028V65.5894H21.3849V61.2284H8.29816V69.9605L12.6571 74.3215H38.8306L43.1896 69.9605V52.5081L38.8306 48.137H21.3849V39.4148H30.1028V43.776H43.1896V35.0557L38.8306 30.6846H12.6571Z" fill="#1C1C1A"/>
</svg>
